<svg width="64" height="64" viewBox="0 0 64 64" fill="none" xmlns="http://www.w3.org/2000/svg">
  <defs>
    <linearGradient id="shirt" x1="14" y1="28" x2="49" y2="58" gradientUnits="userSpaceOnUse"><stop stop-color="#2F57B0"/><stop offset="1" stop-color="#1E3A8A"/></linearGradient>
    <linearGradient id="skin" x1="24" y1="8" x2="40" y2="30" gradientUnits="userSpaceOnUse"><stop stop-color="#F5C6A5"/><stop offset="1" stop-color="#D9966E"/></linearGradient>
    <filter id="shadow" x="6" y="4" width="52" height="58" color-interpolation-filters="sRGB"><feDropShadow dx="0" dy="5" stdDeviation="4" flood-color="#111827" flood-opacity=".32"/></filter>
  </defs>
  <g filter="url(#shadow)">
    <path d="M16 54c2-12 10-18 16-18s14 6 16 18H16Z" fill="url(#shirt)"/>
    <circle cx="32" cy="22" r="11" fill="url(#skin)"/>
    <path d="M22 21c1-9 7-13 14-11 6 1 9 5 9 11-5-5-13-3-23 0Z" fill="#374151"/>
    <path d="M43 43h12l3 7-11 5-7-7 3-5Z" fill="#F59E0B"/>
    <path d="M49 42 37 30" stroke="#374151" stroke-width="5" stroke-linecap="round"/>
    <path d="M47 39h9" stroke="#E5E7EB" stroke-width="3" stroke-linecap="round"/>
    <path d="M20 54h24" stroke="#93C5FD" stroke-width="2" stroke-linecap="round" opacity=".65"/>
  </g>
</svg>
