<svg width="64" height="64" viewBox="0 0 64 64" fill="none" xmlns="http://www.w3.org/2000/svg">
  <defs>
    <linearGradient id="gear" x1="12" y1="10" x2="50" y2="52" gradientUnits="userSpaceOnUse"><stop stop-color="#64748B"/><stop offset="1" stop-color="#374151"/></linearGradient>
    <filter id="shadow" x="6" y="4" width="56" height="58" color-interpolation-filters="sRGB"><feDropShadow dx="0" dy="5" stdDeviation="4" flood-color="#111827" flood-opacity=".35"/></filter>
  </defs>
  <g filter="url(#shadow)">
    <path d="M32 9 37 12l5-2 5 6-3 5 3 5 6 2v8l-6 2-3 5 3 5-5 6-5-2-5 3-5-3-5 2-5-6 3-5-3-5-6-2v-8l6-2 3-5-3-5 5-6 5 2 5-3Z" fill="url(#gear)"/>
    <circle cx="32" cy="32" r="10" fill="#E5E7EB"/>
    <circle cx="32" cy="32" r="5" fill="#1E3A8A"/>
    <path d="M45 47 56 36" stroke="#374151" stroke-width="5" stroke-linecap="round"/>
    <path d="M51 32 60 41" stroke="#F59E0B" stroke-width="5" stroke-linecap="round"/>
  </g>
</svg>
